<!-- Generated by IcoMoon.io -->
<svg version="1.1" xmlns="http://www.w3.org/2000/svg" width="56" height="56" viewBox="0 0 32 32">
<title>entertainment</title>
<path d="M30.281 15.724l-1.285-1.285v-12.228l1.080-1.080c0.212-0.212 0.212-0.555 0-0.767s-0.555-0.212-0.767 0l-1.080 1.080h-12.228l-1.285-1.285c-0.212-0.212-0.555-0.212-0.767 0s-0.212 0.555 0 0.767l1.23 1.23-3.815 16.168c-0.315 0.393-0.42 0.917-0.273 1.407 0.164 0.545 0.612 0.953 1.169 1.066l2.433 0.494c0.461 0.094 0.854 0.385 1.076 0.8s0.249 0.903 0.072 1.339c-0.288 0.71-1.040 1.11-1.789 0.951l-9.115-1.931c-1.373-0.291-2.756 0.488-3.22 1.812-0.269 0.768-0.19 1.613 0.215 2.318s1.096 1.198 1.895 1.352l0.038 0.007c0.718 0.139 1.328 0.588 1.674 1.233s0.381 1.402 0.098 2.076c-0.116 0.276 0.014 0.594 0.29 0.71 0.069 0.029 0.139 0.042 0.209 0.042 0.212 0 0.413-0.125 0.5-0.333 0.41-0.977 0.358-2.073-0.142-3.007s-1.384-1.585-2.424-1.786l-0.038-0.007c-0.489-0.094-0.912-0.396-1.16-0.828s-0.296-0.949-0.132-1.42c0.284-0.811 1.132-1.288 1.972-1.11l9.115 1.931c1.264 0.268 2.533-0.407 3.019-1.604 0.298-0.736 0.254-1.559-0.122-2.259s-1.037-1.192-1.816-1.35l-2.433-0.494c-0.242-0.049-0.323-0.238-0.347-0.316-0.019-0.064-0.047-0.208 0.036-0.354l16.118-3.804 1.23 1.23c0.106 0.106 0.245 0.159 0.383 0.159s0.277-0.053 0.383-0.159c0.212-0.212 0.212-0.555 0-0.767zM27.145 2.528l-5.030 5.030-5.030-5.030h10.060zM16.080 3.057l5.268 5.268-8.522 8.522 3.254-13.79zM13.593 17.613l8.522-8.522 5.268 5.268-13.79 3.254zM27.911 13.355l-5.030-5.030 5.030-5.030v10.060z"></path>
</svg>
