<!-- Generated by IcoMoon.io -->
<svg version="1.1" xmlns="http://www.w3.org/2000/svg" width="56" height="56" viewBox="0 0 32 32">
<title>technique</title>
<path d="M21.709 9.697c-0.345 0-0.625 0.279-0.625 0.625s0.28 0.625 0.625 0.625c0.346 0 0.625-0.28 0.625-0.625s-0.279-0.625-0.625-0.625z"></path>
<path d="M10.353 21.052c-0.346 0-0.625 0.28-0.625 0.625s0.279 0.625 0.625 0.625c0.345 0 0.625-0.279 0.625-0.625s-0.28-0.625-0.625-0.625z"></path>
<path d="M31.254 3.845c-0.211-0.049-0.433 0.015-0.585 0.168l-2.591 2.612h-1.242l-1.367-1.417v-1.26l2.554-2.592c0.151-0.153 0.213-0.374 0.163-0.584s-0.204-0.378-0.408-0.447c-0.642-0.216-1.313-0.326-1.996-0.326-2.036 0-3.885 0.949-5.074 2.604-1.113 1.549-1.456 3.448-0.964 5.265l-4.604 4.604-7.67-7.688v-1.509c0-0.219-0.115-0.423-0.303-0.536l-4.419-2.652c-0.246-0.148-0.561-0.109-0.763 0.094l-1.768 1.767c-0.203 0.203-0.241 0.518-0.094 0.764l2.651 4.419c0.113 0.188 0.316 0.303 0.536 0.303l1.508 0 7.671 7.688-4.586 4.586c-1.817-0.491-3.717-0.148-5.267 0.966-1.654 1.188-2.603 3.037-2.603 5.073 0 0.683 0.11 1.354 0.326 1.996 0.069 0.205 0.24 0.36 0.451 0.409s0.433-0.015 0.585-0.168l2.591-2.611h1.249l1.423 1.423v1.249l-2.611 2.591c-0.154 0.153-0.218 0.374-0.168 0.585s0.204 0.382 0.409 0.451c0.641 0.216 1.313 0.326 1.996 0.326 2.036 0 3.884-0.949 5.073-2.603 1.114-1.55 1.457-3.45 0.966-5.267l3.683-3.683 0.844 0.916-0.387 0.387c-0.244 0.244-0.244 0.64 0 0.884s0.64 0.244 0.884 0l0.351-0.351 7.916 8.599c0.006 0.006 0.012 0.012 0.018 0.019 1.465 1.465 3.838 1.465 5.304-0 1.461-1.462 1.461-3.841 0-5.303-0.006-0.006-0.013-0.012-0.020-0.019l-8.613-7.901 0.347-0.347c0.244-0.244 0.244-0.64 0-0.884s-0.64-0.244-0.884 0l-0.384 0.385-0.918-0.843 3.701-3.701c0.526 0.141 1.069 0.212 1.619 0.212 3.446 0 6.25-2.804 6.25-6.25 0-0.683-0.11-1.354-0.326-1.996-0.069-0.205-0.24-0.36-0.451-0.409zM5.518 6.371c-0.117-0.117-0.276-0.177-0.442-0.177l-1.414-0-2.218-3.704 1.077-1.077 3.697 2.219v1.414c0 0.166 0.066 0.324 0.183 0.441l7.854 7.871-0.884 0.884-7.853-7.87zM21.416 18.562l8.642 7.928c0.965 0.976 0.962 2.555-0.009 3.527-0.974 0.974-2.55 0.977-3.527 0.009l-7.942-8.627 2.837-2.836zM20.494 17.716l-2.762 2.762-0.844-0.916 2.688-2.688 0.918 0.843zM25.78 11.25c-0.547 0-1.084-0.088-1.597-0.261-0.225-0.075-0.473-0.017-0.641 0.15-3.133 3.133-9.885 9.884-12.371 12.371-0.168 0.168-0.226 0.416-0.15 0.642 0.52 1.543 0.271 3.188-0.682 4.515-0.95 1.323-2.429 2.082-4.057 2.082-0.183 0-0.365-0.010-0.545-0.029l1.985-1.97c0.118-0.117 0.185-0.277 0.185-0.444v-1.768c0-0.166-0.066-0.325-0.183-0.442l-1.789-1.789c-0.117-0.117-0.276-0.183-0.442-0.183h-1.768c-0.167 0-0.326 0.067-0.444 0.185l-1.97 1.985c-0.020-0.18-0.029-0.362-0.029-0.545 0-1.628 0.759-3.107 2.082-4.057 1.327-0.953 2.972-1.202 4.515-0.682 0.225 0.076 0.473 0.018 0.641-0.15 0.034-0.034 12.362-12.362 12.371-12.371 0.168-0.168 0.226-0.416 0.15-0.641-0.52-1.543-0.272-3.188 0.681-4.514 0.951-1.324 2.43-2.083 4.059-2.083 0.188 0 0.376 0.010 0.561 0.031l-1.944 1.973c-0.115 0.117-0.18 0.274-0.18 0.438v1.768c0 0.162 0.063 0.318 0.175 0.434l1.727 1.789c0.118 0.122 0.28 0.191 0.45 0.191h1.768c0.166 0 0.326-0.066 0.444-0.185l1.97-1.985c0.020 0.18 0.029 0.362 0.029 0.545 0 2.757-2.243 5-5 5z"></path>
<path d="M19.499 11.647l-7.821 7.821c-0.244 0.244-0.244 0.64 0 0.884s0.64 0.244 0.884 0l7.821-7.821c0.244-0.244 0.244-0.64 0-0.884s-0.64-0.244-0.884 0z"></path>
<path d="M27.397 28.25c0.244 0.243 0.64 0.243 0.884-0.002s0.243-0.64-0.002-0.884l-5.634-5.616c-0.244-0.244-0.64-0.243-0.884 0.001s-0.243 0.64 0.001 0.884l5.634 5.616z"></path>
</svg>
