<!-- Generated by IcoMoon.io -->
<svg version="1.1" xmlns="http://www.w3.org/2000/svg" width="56" height="56" viewBox="0 0 32 32">
<title>education</title>
<path d="M31.38 6.431c-0.002 0-0.004 0-0.006 0h-2.103v-0.72c0.011-0.285-0.173-0.541-0.447-0.62-1.46-0.383-2.963-0.574-4.472-0.571-2.481 0-5.862 0.558-8.361 3.101-2.481-2.568-5.886-3.101-8.361-3.101-1.509-0.004-3.012 0.188-4.472 0.571-0.274 0.080-0.458 0.335-0.447 0.62v0.713h-2.090c-0.343 0-0.62 0.278-0.62 0.62v19.812c0 0.343 0.278 0.62 0.62 0.62 0.107-0 0.211-0.028 0.304-0.081 0.062-0.031 6.265-3.424 14.924-1.241h0.149c0.049 0.006 0.099 0.006 0.149 0 8.684-2.202 14.887 1.185 14.924 1.241 0.192 0.111 0.428 0.111 0.62 0 0.191-0.11 0.309-0.313 0.31-0.533v-19.812c0-0.343-0.278-0.62-0.62-0.62zM1.241 25.871v-18.199h1.482v15.556c-0.004 0.343 0.271 0.623 0.613 0.627 0.034 0 0.067-0.002 0.1-0.007 1.283-0.196 2.579-0.3 3.877-0.31 1.798-0.031 3.588 0.239 5.297 0.8-3.858-0.467-7.772 0.061-11.37 1.532zM7.313 22.304c-1.128 0.003-2.255 0.075-3.374 0.217v-16.319c1.208-0.269 2.441-0.406 3.678-0.409 2.32 0 5.52 0.533 7.741 3.039l0.019 15.451c-1.29-0.844-3.809-1.979-8.064-1.979zM16.617 8.832c2.221-2.481 5.421-3.039 7.741-3.039 1.237 0.004 2.47 0.141 3.678 0.409v16.319c-1.113-0.143-2.234-0.218-3.356-0.223-4.23 0-6.755 1.135-8.064 1.979v-15.445zM30.753 25.871c-3.605-1.475-7.528-2.003-11.394-1.532 1.717-0.563 3.516-0.833 5.322-0.8 1.306 0.007 2.61 0.109 3.902 0.304 0.339 0.051 0.655-0.182 0.706-0.52 0.005-0.033 0.007-0.067 0.007-0.1v-15.55h1.482l-0.025 18.199z"></path>
</svg>
