<!-- Generated by IcoMoon.io -->
<svg version="1.1" xmlns="http://www.w3.org/2000/svg" width="56" height="56" viewBox="0 0 37 32">
<title>products</title>
<path d="M14.798 11.897c-0.298-0.326-0.722-0.517-1.164-0.524-0.888-0.011-1.623 0.697-1.638 1.584-0.005 0.286 0.223 0.522 0.509 0.527 0.003 0 0.006 0 0.009 0 0.282 0 0.513-0.226 0.518-0.509 0.005-0.317 0.266-0.571 0.586-0.566 0.16 0.002 0.307 0.069 0.415 0.187 0.193 0.211 0.521 0.226 0.732 0.033s0.226-0.521 0.033-0.732z"></path>
<path d="M17.554 13.586c-0.159-0.373-0.468-0.668-0.848-0.808-0.765-0.282-1.618 0.11-1.901 0.874-0.1 0.268 0.037 0.566 0.306 0.666 0.059 0.022 0.12 0.033 0.18 0.033 0.211 0 0.408-0.129 0.486-0.338 0.085-0.229 0.342-0.347 0.571-0.262 0.115 0.043 0.205 0.128 0.254 0.242 0.112 0.263 0.416 0.386 0.68 0.274s0.386-0.416 0.274-0.68z"></path>
<path d="M20.894 8.998c-0.203-0.202-0.531-0.202-0.733 0.001l-0.488 0.489c-0.202 0.203-0.202 0.531 0.001 0.733 0.101 0.101 0.233 0.151 0.366 0.151s0.266-0.051 0.367-0.152l0.488-0.489c0.202-0.203 0.202-0.531-0.001-0.733z"></path>
<path d="M17.67 15.686h-0.691c-0.286 0-0.518 0.232-0.518 0.518s0.232 0.518 0.518 0.518h0.691c0.286 0 0.518-0.232 0.518-0.518s-0.232-0.518-0.518-0.518z"></path>
<path d="M22.965 15.686h-0.691c-0.286 0-0.518 0.232-0.518 0.518s0.232 0.518 0.518 0.518h0.691c0.286 0 0.518-0.232 0.518-0.518s-0.232-0.518-0.518-0.518z"></path>
<path d="M36.475 25.028l-0.135-0.728c-0.086-0.465-0.492-0.803-0.966-0.803-0.059 0-0.119 0.005-0.178 0.016l-2.747 0.505 1.244-0.831c0.326-0.218 0.491-0.608 0.42-0.994-0.020-0.106-0.057-0.207-0.11-0.303l-0.376-0.666c-0.129-0.229-0.349-0.399-0.603-0.467-0.124-0.033-0.254-0.041-0.381-0.024 0.139-0.764 0.21-1.545 0.21-2.34 0-0.353-0.212-0.656-0.515-0.791 0.396-0.941 0.423-2.019 0.032-3.006-0.032-0.080-0.079-0.152-0.14-0.213s-0.131-0.107-0.212-0.14c-0.469-0.187-0.962-0.281-1.465-0.281-0.064 0-0.128 0.002-0.192 0.005-0.072-1.446-1.269-2.6-2.73-2.6-0.192 0-0.38 0.020-0.561 0.059 0.126-0.753 0.052-1.541-0.242-2.28-0.032-0.081-0.079-0.154-0.143-0.22-0.062-0.062-0.134-0.11-0.215-0.142-0.505-0.201-1.036-0.303-1.578-0.303-0.816 0-1.597 0.229-2.271 0.656-0.246-0.713-0.652-1.383-1.22-1.952-0.166-0.167-0.387-0.258-0.622-0.258s-0.456 0.092-0.623 0.258l-2.508 2.514c-0.464-0.414-1.075-0.662-1.738-0.662-0.15 0-0.302 0.013-0.451 0.039-0.54 0.094-1.038 0.359-1.419 0.746-0.489-0.236-1.049-0.316-1.587-0.223-0.118 0.021-0.233 0.050-0.345 0.085v-1.937c0-1.334-1.072-2.422-2.399-2.444v-1.099c0.406-0.070 0.716-0.424 0.716-0.85v-2.49c0-0.476-0.387-0.863-0.864-0.863h-4.213c-0.476 0-0.863 0.387-0.863 0.863v2.49c0 0.426 0.31 0.78 0.716 0.85v1.099c-1.326 0.023-2.399 1.11-2.399 2.444v15.121c-1.034 0.934-1.678 2.238-1.678 3.679 0 2.835 2.489 5.142 5.548 5.142l20.736-0.006c0.708-0 1.373-0.311 1.826-0.853 0.441-0.528 0.628-1.213 0.52-1.889l4.142 0.744c0.057 0.010 0.116 0.016 0.174 0.016 0.207 0 0.404-0.063 0.572-0.183 0.215-0.154 0.361-0.392 0.4-0.653l0.112-0.753c0.016-0.108 0.014-0.216-0.005-0.323-0.071-0.385-0.364-0.69-0.747-0.778l-1.46-0.335 2.744-0.504c0.259-0.047 0.483-0.193 0.632-0.409s0.204-0.476 0.157-0.734zM30.552 14.997c0.312 0 0.619 0.049 0.913 0.147 0.263 0.802 0.165 1.668-0.248 2.382h-1.396l0.445-0.446c0.202-0.203 0.202-0.531-0.001-0.733s-0.531-0.202-0.733 0.001l-0.236 0.236c-0.11-0.364-0.303-0.689-0.557-0.956 0.514-0.408 1.145-0.631 1.811-0.631zM27.63 12.401c0.936 0 1.697 0.763 1.697 1.702 0 0.017-0.001 0.035-0.001 0.052-0.546 0.178-1.050 0.474-1.479 0.877-0.068-0.026-0.138-0.050-0.209-0.070-0.152-0.819-0.703-1.475-1.432-1.781 0.302-0.469 0.827-0.78 1.424-0.78zM24.891 9.515c0.352 0 0.698 0.057 1.031 0.17 0.268 0.796 0.213 1.652-0.128 2.393-0.281 0.256-0.508 0.568-0.664 0.92-0.093 0.005-0.185 0.016-0.276 0.031-0.406 0.071-0.785 0.247-1.101 0.502-0.108-0.198-0.24-0.38-0.392-0.544l1.188-1.191c0.202-0.203 0.202-0.531-0.001-0.733s-0.531-0.202-0.733 0.001l-1.299 1.302c-0.247-0.117-0.514-0.198-0.795-0.236 0.121-0.618 0.421-1.201 0.885-1.666 0.611-0.612 1.422-0.949 2.284-0.949zM20.921 17.526h-0.449c-0.076-0.192-0.263-0.329-0.482-0.329s-0.406 0.136-0.482 0.329h-0.528c0.123-0.2 0.098-0.464-0.075-0.637-0.203-0.202-0.531-0.202-0.733 0.001l-0.488 0.489c-0.044 0.044-0.078 0.094-0.102 0.147h-1.054c-0.395-0.606-0.636-1.321-0.664-2.091h8.219c-0.029 0.77-0.27 1.485-0.664 2.091h-1.097c-0.025-0.053-0.059-0.103-0.102-0.147l-0.488-0.489c-0.202-0.202-0.53-0.203-0.733-0.001-0.173 0.173-0.198 0.438-0.075 0.637zM19.716 14.399c0.195-0.724 0.855-1.258 1.638-1.258s1.443 0.534 1.638 1.258h-3.276zM20.776 8.028c0.493 0.533 0.819 1.165 0.978 1.83-0.264 0.287-0.484 0.605-0.658 0.943-0.079-0.048-0.171-0.076-0.27-0.076h-0.69c-0.286 0-0.518 0.232-0.518 0.518s0.232 0.518 0.518 0.518h0.606c-0.034 0.143-0.061 0.288-0.080 0.434-0.206 0.054-0.402 0.131-0.586 0.229-0.345-0.596-0.917-1.040-1.595-1.218-0-0.001-0-0.003-0.001-0.004-0.041-0.234-0.111-0.457-0.208-0.664l2.503-2.509zM11.41 12.703c-0.030-0.085-0.053-0.172-0.069-0.26-0.149-0.857 0.429-1.675 1.287-1.825 0.091-0.016 0.182-0.024 0.273-0.024 0.341 0 0.668 0.109 0.943 0.315 0.114 0.085 0.258 0.12 0.399 0.095s0.264-0.105 0.343-0.224c0.243-0.367 0.615-0.61 1.048-0.686 0.091-0.016 0.183-0.024 0.274-0.024 0.768 0 1.42 0.549 1.551 1.306 0.015 0.087 0.023 0.177 0.023 0.269 0 0.268 0.206 0.492 0.473 0.515 0.579 0.051 1.072 0.415 1.301 0.929-0.306 0.367-0.518 0.816-0.599 1.308h-2.955c-0.367 0-0.683 0.227-0.814 0.548-0.65-0.443-1.416-0.681-2.219-0.681-0.503 0-0.996 0.095-1.465 0.281-0.080 0.032-0.151 0.079-0.211 0.139s-0.109 0.134-0.14 0.213c-0.119 0.301-0.199 0.61-0.242 0.921-0.186-0.211-0.317-0.474-0.368-0.769-0.122-0.703 0.246-1.403 0.895-1.702 0.244-0.113 0.361-0.392 0.271-0.645zM12.955 17.384l0.141 0.142h-1.244c-0.279-0.648-0.322-1.386-0.095-2.078 0.295-0.098 0.602-0.147 0.913-0.147 0.781 0 1.515 0.305 2.068 0.859 0.073 0.074 0.142 0.151 0.206 0.231 0.088 0.397 0.223 0.777 0.397 1.135h-0.781l-0.872-0.874c-0.202-0.203-0.53-0.203-0.733-0.001s-0.203 0.53-0.001 0.733zM10.749 17.526h-1.847c0.082-0.502 0.384-0.93 0.803-1.182 0.248 0.332 0.572 0.601 0.945 0.783 0.026 0.134 0.059 0.268 0.099 0.399zM5.52 1.036h3.868v2.144h-3.868v-2.144zM8.672 4.216v1.084h-2.436v-1.084h2.436zM3.837 9.847h3.364c0.286 0 0.518-0.232 0.518-0.518s-0.232-0.518-0.518-0.518h-3.364v-1.065c0-0.777 0.63-1.409 1.405-1.409h4.423c0.775 0 1.405 0.632 1.405 1.409v1.065h-0.967c-0.286 0-0.518 0.232-0.518 0.518s0.232 0.518 0.518 0.518h0.967v0.46c-0.594 0.582-0.902 1.435-0.75 2.313 0 0.002 0.001 0.004 0.001 0.005-0.831 0.57-1.274 1.584-1.098 2.602 0.010 0.059 0.023 0.118 0.037 0.176-0.259 0.143-0.491 0.327-0.691 0.543h-4.733v-6.099zM3.837 16.982h4.132c-0.055 0.175-0.094 0.356-0.113 0.544h-0.087c-0.477 0-0.865 0.388-0.865 0.866 0 0.823 0.077 1.63 0.225 2.42-0.149-0.012-0.302-0.018-0.457-0.018-0.627 0-1.224 0.099-1.681 0.28-0.699 0.276-0.893 0.668-0.935 0.94-0.074 0.037-0.147 0.076-0.219 0.116v-5.147zM10.398 23.347c0.187 0.149 0.301 0.276 0.367 0.368-0.006 0-0.013 0-0.019 0-0.293 0-0.82-0.118-1.419-0.45-0.223-0.124-0.429-0.263-0.594-0.404-0.193-0.164-0.477-0.164-0.67 0-0.166 0.141-0.371 0.28-0.594 0.403-0.599 0.332-1.126 0.45-1.419 0.45-0.007 0-0.013-0-0.019-0 0.066-0.092 0.18-0.218 0.367-0.368 0.163-0.131 0.232-0.346 0.174-0.547s-0.23-0.348-0.438-0.372c-0.506-0.059-0.825-0.188-0.975-0.282 0.188-0.117 0.662-0.316 1.515-0.316 0.707 0 1.223 0.149 1.471 0.288 0.158 0.088 0.35 0.088 0.507 0 0.248-0.139 0.764-0.288 1.471-0.288 0.853 0 1.327 0.199 1.515 0.316-0.15 0.094-0.469 0.222-0.975 0.282-0.208 0.024-0.38 0.171-0.438 0.372s0.011 0.417 0.174 0.547zM9.361 29.652l0.018 0.096c0.062 0.333 0.192 0.638 0.373 0.904h-3.082c-2.488 0-4.511-1.842-4.511-4.106 0-1.547 0.946-2.897 2.338-3.597 0.16 0.119 0.359 0.222 0.596 0.305-0.094 0.16-0.159 0.332-0.175 0.512-0.020 0.239 0.053 0.466 0.206 0.639 0.203 0.229 0.514 0.345 0.924 0.345 0.547 0 1.266-0.217 1.921-0.58 0.151-0.083 0.294-0.172 0.427-0.264 0.134 0.092 0.276 0.18 0.427 0.264 0.656 0.363 1.374 0.579 1.921 0.58h0c0.411 0 0.722-0.116 0.924-0.345 0.153-0.173 0.227-0.4 0.206-0.639-0.015-0.18-0.081-0.352-0.175-0.512 0.237-0.083 0.436-0.186 0.596-0.305 1.104 0.555 1.927 1.519 2.22 2.666l-3.664 1.392c-1.073 0.408-1.7 1.52-1.492 2.645zM28.438 30.165c-0.256 0.306-0.631 0.481-1.031 0.481l-0.544 0-0.34-1.834c-0.052-0.281-0.322-0.467-0.604-0.415s-0.467 0.322-0.415 0.604l0.305 1.646-1.783 0.001-0.23-1.24c-0.052-0.281-0.322-0.467-0.604-0.415s-0.467 0.322-0.415 0.604l0.195 1.052-4.146 0.002-0.312-1.685c-0.052-0.281-0.322-0.467-0.604-0.415s-0.467 0.322-0.415 0.604l0.277 1.496-6.054 0.002c-0 0-0 0-0 0-0.647 0-1.202-0.459-1.32-1.093l-0.018-0.096c-0.117-0.632 0.236-1.258 0.841-1.488l2.036-0.774 0.152 0.819c0.046 0.249 0.264 0.424 0.509 0.424 0.031 0 0.063-0.003 0.095-0.009 0.281-0.052 0.467-0.322 0.415-0.604l-0.186-1.004 3.023-1.148c0.267-0.102 0.402-0.401 0.3-0.668s-0.401-0.402-0.668-0.3l-1.406 0.534c-0.395-1.397-1.408-2.564-2.752-3.233-0.042-0.271-0.236-0.663-0.935-0.94-0.457-0.181-1.054-0.28-1.681-0.28-0.431 0-0.843 0.048-1.206 0.134v-0.313c0-0.286-0.232-0.518-0.518-0.518-0.121 0-0.232 0.042-0.32 0.111-0.082-0.54-0.127-1.089-0.135-1.646h16.875c0.286 0 0.518-0.232 0.518-0.518s-0.232-0.518-0.518-0.518h-0.212c0.33-0.679 0.516-1.441 0.516-2.246 0-0.457-0.35-0.834-0.795-0.876 0.194-0.183 0.436-0.306 0.706-0.353 0.079-0.014 0.159-0.021 0.239-0.021 0.669 0 1.237 0.479 1.351 1.138 0.013 0.076 0.020 0.155 0.020 0.234 0 0.268 0.206 0.492 0.473 0.515 0.619 0.054 1.126 0.52 1.232 1.132 0.028 0.163 0.025 0.323-0.004 0.477h-0.556c-0.286 0-0.518 0.232-0.518 0.518s0.232 0.518 0.518 0.518h4.027c-0.013 0.95-0.135 1.879-0.364 2.779l-2.808 1.657c-0.172-0.598-0.571-1.105-1.121-1.412-0.617-0.345-1.35-0.399-2.011-0.148l-5.783 2.197c-0.267 0.102-0.402 0.401-0.3 0.668s0.401 0.402 0.668 0.3l0.762-0.289 0.237 1.277c0.046 0.25 0.264 0.424 0.509 0.424 0.031 0 0.063-0.003 0.095-0.009 0.281-0.052 0.467-0.322 0.415-0.604l-0.271-1.462 4.036-1.533c0.374-0.142 0.788-0.112 1.137 0.084s0.589 0.53 0.662 0.921l1.048 5.659c0.072 0.39-0.033 0.789-0.288 1.094zM30.286 26.109c-0.242 0.044-0.419 0.252-0.424 0.498s0.163 0.461 0.402 0.516l3.857 0.885-0.096 0.646-4.472-0.804-0.699-3.774 3.895-2.299 0.324 0.575-3.285 2.196c-0.204 0.137-0.285 0.398-0.192 0.626s0.332 0.359 0.574 0.315l5.161-0.948 0.115 0.62-5.159 0.948z"></path>
</svg>
